<?xml version="1.0" encoding="UTF-8"?>
<svg id="Capa_2" data-name="Capa 2" xmlns="http://www.w3.org/2000/svg" viewBox="0 0 370.22 468">
  <defs>
    <style>
      .cls-1 {
        fill: #fff;
      }

      .cls-2 {
        fill: #36a9e1;
      }

      .cls-3 {
        fill: #297ea6;
      }

      .cls-4 {
        fill: #f39200;
      }

      .cls-5 {
        fill: #f9b233;
      }

      .cls-6 {
        fill: #1d1d1b;
      }
    </style>
  </defs>
  <g id="Iris">
    <g>
      <circle class="cls-5" cx="192.75" cy="435.41" r="32.59"/>
      <circle class="cls-5" cx="274.21" cy="371.24" r="32.59"/>
      <path class="cls-3" d="M44.59,255.78l-27.97,127.21c1.04,8.39,4.23,12.74,6.75,15.11,15.45,14.51,52.1-1.87,69.11-12.21,12.78-7.77,21.73-16.55,27.32-22.82,11.42,6.71,34,17.92,64.61,19.93,26.26,1.73,47.17-4.05,59.15-8.36,8.22-2.88,19-7.65,30.22-15.75,7.7-5.56,13.73-11.33,18.32-16.39,8.82-9.83,21.65-26.71,29.89-50.79,12.26-35.82,7.33-66.96,4.18-81,7.66-8.68,49.78-57.87,43.39-119.9-2.88-28.02-14.67-48.95-21.86-61.72C333.49,3.85,323.86,.74,318.52,.14c-8.18-.93-15.29,3-19.68,6.12-11.46,23.36-22.93,46.72-34.39,70.07-1.43-3.29-3.61-7.8-6.75-12.86-6.02-9.68-19.35-31.13-39.54-34.07-11.02-1.6-19.85,2.93-28,7.11-16.97,8.71-20.74,19.09-40.79,38.21-9.3,8.87-17.94,15.66-24.75,20.57-3.05,1.61-7.66,3.82-13.5,5.79-7.51,2.53-12.87,3.25-30.54,5.46-17.06,2.14-25.6,3.21-25.72,3.21-10.73,.63-16.98,.1-25.39,3.54-4.98,2.04-8.66,4.63-10.93,6.43-3.35,2.54-12.21,9.96-16.39,23.14-4.87,15.32-.18,28.2,1.29,31.82,13.71,27.03,27.43,54.06,41.14,81.08Z"/>
      <path class="cls-2" d="M64.6,146.81c-.94,.99-3.01-.55-7.71-1.08-2.5-.29-6.37-.73-8.68,.72-3.45,2.17-3.97,8.89-2.01,16.35-3.65,6.15-9.82,18.51-10.09,34.89-.33,19.63,8,33.62,13.79,43.06,9.01,14.69,21.15,34.49,43.88,38.57,20.08,3.61,40.76-6.43,52.56-19.93,18.44-21.11,9.21-43.88,23.47-50.63,14.53-6.88,26.82,15.52,54.65,14.29,19.07-.85,39.92-12.56,49.3-31.35,10.69-21.42,2.04-43.18-4.3-59.12-3.95-9.94-11.77-29.6-32.14-40.68-8.19-4.45-15.88-6.16-21.06-6.89-1.17-1.19-2.94-2.95-5.18-4.98-5.9-5.35-8.85-8.02-10.97-7.59-4.52,.91-3.59,11.73-7.71,12.78-5.13,1.3-10.14-14.51-15.55-13.86-6.95,.83-3.86,27.59-19.53,52.92-4.93,7.96-10.35,13.58-14.02,17-3.85,2.22-9.74,4.9-17.08,5.3-7.75,.43-12.91-1.9-28.81-8.68-23.79-10.14-31.37-13.07-34.11-10.13-2.15,2.31-1.18,8.04-.84,10,.87,5.13,3.29,7.86,2.17,9.04Z"/>
      <path class="cls-5" d="M194,223.06c3.76-8.29,.25-16-.29-17.14-1.61-.5-13.9-4.12-25.02,3.46-7.93,5.41-10.54,13.29-11.25,15.73,1.57,1.88,5.04,5.52,10.7,7.59,2.49,.91,8.79,3.21,15.73,.3,6.72-2.82,9.53-8.64,10.13-9.94Z"/>
      <path class="cls-4" d="M149.05,227.25l8.38-2.15,17.98-4.6,23.3-18.59c-8.01-9.58-20.77-13.34-31.66-9.54-13.24,4.62-21.52,19.65-18,34.88Z"/>
      <path class="cls-2" d="M163.2,306.01c.48-.32,37.61-18.32,37.61-18.32,.32,1.65,1.69,9.63-3.38,16.8-5.06,7.16-14.01,9.9-21.64,8.56-6.8-1.2-11.08-5.39-12.6-7.03Z"/>
      <path class="cls-2" d="M218.07,280.32c.48-.32,37.61-18.32,37.61-18.32,.32,1.65,1.69,9.63-3.38,16.8-5.06,7.16-14.01,9.9-21.64,8.56-6.8-1.2-11.08-5.39-12.6-7.03Z"/>
      <path class="cls-2" d="M203.6,320.09c.48-.32,37.61-18.32,37.61-18.32,.32,1.65,1.69,9.63-3.38,16.8-5.06,7.16-14.01,9.9-21.64,8.56-6.8-1.2-11.08-5.39-12.6-7.03Z"/>
      <path class="cls-1" d="M56.28,208.53l17.12,35.8c11.59,13.13,30.6,17.03,46.41,9.52,15.84-7.52,24.83-24.77,21.94-42.07-6.03-12.03-12.05-24.06-18.08-36.08-11.66-13.31-30.93-17.11-46.65-9.24-15.45,7.73-23.98,24.98-20.73,42.07Z"/>
      <path class="cls-1" d="M179.59,154.65l12.66,25.25c2.86,3.77,10.08,12.14,22.42,15.97,3.95,1.23,18.5,5.75,31.34-2.41,9.51-6.05,12.76-15.68,14.34-20.37,4-11.84,1.97-22.15,.84-26.52-5.3-9.4-10.61-18.8-15.91-28.21-13.15-14.78-32.88-19.37-47.25-12.17-15.82,7.92-19.28,27.2-19.65,29.41-1.35,8.22,.06,15.08,1.21,19.05Z"/>
      <path class="cls-6" d="M82.19,201.92l13.14,26.02c6.17,6.3,15.83,7.49,23.02,3.01,6.55-4.08,9.85-12.1,8.08-19.89-2.81-5.63-5.63-11.25-8.44-16.88-.48,.1-7.2,1.34-12.05-3.62-4.2-4.29-3.7-9.85-3.62-10.61-1.13-.1-8.82-.67-14.83,5.18-6.91,6.73-5.44,15.98-5.3,16.77Z"/>
      <path class="cls-6" d="M193.19,148.17l13.14,26.02c6.17,6.3,15.83,7.49,23.02,3.01,6.55-4.08,9.85-12.1,8.08-19.89-3.29-5.75-6.58-11.5-9.87-17.26-3.84,2-8.52,1.58-11.93-1.08-3.38-2.64-4.94-7.02-3.98-11.21-1.08-.15-7.7-.99-13.16,3.64-4.7,3.98-6.73,10.47-5.3,16.77Z"/>
    </g>
  </g>
</svg>